# xmcd
#
# Track frame offsets:
#	150
#	13859
#	29882
#	46503
#	60037
#	67926
#	78505
#	93003
#	108860
#	121971
#	134961
#
# Disc length: 2036 seconds
#
# Revision: 0
# Processed by: cddbd v1.5.2PL0 Copyright (c) Steve Scherf et al.
# Submitted via: dBpowerAMP V4.0
#
DISCID=8707f20b
DTITLE=Ed Zincavage - Blue Moon in December
DYEAR=2010
DGENRE=Blues
TTITLE0=Pig in a Doghouse
TTITLE1=Can't Get You Off of My Mind
TTITLE2=Like a Pilgrim Stuck Inside Times Square
TTITLE3=Bus Ride to Chiapas
TTITLE4=Graced Again
TTITLE5=Free To Fly
TTITLE6=Counterfeit Love
TTITLE7=Blanche Le Fleur
TTITLE8=Brendan's Lullaby
TTITLE9=Promise of a Brand New Day
TTITLE10=Walk the Dog
EXTD=Recorded at Elliott Bay Recording Co.
EXTT0=
EXTT1=
EXTT2=
EXTT3=
EXTT4=
EXTT5=
EXTT6=
EXTT7=
EXTT8=
EXTT9=
EXTT10=
PLAYORDER=
